<svg id="Layer_1" data-name="Layer 1" xmlns="http://www.w3.org/2000/svg" viewBox="0 0 350 70"><defs><style>.cls-1{fill:#0f008a;}.cls-2{fill:#fff;}.cls-3{fill:#ff0;}</style></defs><title>Artboard 7Footers</title><rect class="cls-1" width="350" height="70"/><path class="cls-2" d="M27.05,30.86a2.57,2.57,0,0,1,1.67.7,6.31,6.31,0,0,1,3.45-.7h0c2.77,0,4.64,1,5.59,2.94a6.43,6.43,0,0,1,.56,2.59v10.8l-.1.11h-.71a2.26,2.26,0,0,1-2.33-1.88V37.06c0-1.45-.39-2.36-1.17-2.7A4.93,4.93,0,0,0,31.87,34c-1.83,0-2.74,1-2.74,2.85V47.19l-.1.11h-.76A2.18,2.18,0,0,1,26,45.52l-.06-.5v-14C25.93,31,26.3,30.89,27.05,30.86Z"/><path class="cls-2" d="M41.19,30.9h1a2.05,2.05,0,0,1,2,1.6,1.86,1.86,0,0,1,.09.66v8.38a2.37,2.37,0,0,0,2.7,2.66H47c2.16,0,3.25-.78,3.25-2.35V31l.1-.11h.84c1.25,0,2,.73,2.15,2.2V47.19l-.09.11h-.55a2.45,2.45,0,0,1-2-.8,5.76,5.76,0,0,1-3.25.8h-.3c-3,0-4.91-1.19-5.74-3.55a7.16,7.16,0,0,1-.35-2.15V31Z"/><path class="cls-2" d="M61.28,30.9l.94.05h.9a5.21,5.21,0,0,1,3.6,1.55,5.52,5.52,0,0,1,4.07-1.6c2.06,0,3.42.28,4.09.85a5.61,5.61,0,0,1,2.49,4.88V47.19l-.09.11h-.41a2.25,2.25,0,0,1-2.38-1.39,3,3,0,0,1-.21-1.15V37.18q0-2.15-1.14-2.85a5.23,5.23,0,0,0-1.6-.34c-1.46,0-2.39.27-2.79.8a3.59,3.59,0,0,0-.5,1.94V47.19l-.09.11h-.61a2.23,2.23,0,0,1-2.38-1.89l0-.71V36.54a2.29,2.29,0,0,0-1.45-2.35L62.52,34q-2.48,0-2.88.9a3.8,3.8,0,0,0-.55,2.54v9.76L59,47.3h-.39a2.35,2.35,0,0,1-2.4-1.39,3.72,3.72,0,0,1-.2-1V31L56.1,31H57a2.52,2.52,0,0,1,1.69.7A6,6,0,0,1,61.28,30.9Z"/><path class="cls-2" d="M100.9,30.9H107l.1.11V47.19l-.1.11h-.65a2.41,2.41,0,0,1-1.9-.8,5.74,5.74,0,0,1-3.23.8H95l-.1-.11V36.43A5.09,5.09,0,0,1,99.11,31,10.24,10.24,0,0,1,100.9,30.9ZM98,36.48V44.2h3.08a2.56,2.56,0,0,0,2.9-2.88V34.05h-3.65a2.2,2.2,0,0,0-2.18,1.33A4.86,4.86,0,0,0,98,36.48Z"/><path class="cls-3" d="M92.12,22.7H86a9.32,9.32,0,0,0-1.8.15A5.07,5.07,0,0,0,80,28.23V39l.1.11h6.23a5.8,5.8,0,0,0,3.24-.8,2.38,2.38,0,0,0,1.9.8h.64l.1-.11V22.81Zm-3,10.42A2.56,2.56,0,0,1,86.23,36H83.15V28.29a4.87,4.87,0,0,1,.15-1.11,2.22,2.22,0,0,1,2.19-1.33h3.64Z"/><circle class="cls-3" cx="84.47" cy="30.89" r="0.5"/><circle class="cls-3" cx="87.82" cy="30.89" r="0.5"/><circle class="cls-3" cx="86.14" cy="30.89" r="0.5"/><path class="cls-3" d="M349.33,0H310.27a61.58,61.58,0,0,0-11.54.93q-27.19,7-27.19,34.6v69.11l.68.67h40q13.14,0,20.8-5.13,4.46,5.13,12.2,5.13h4.13l.67-.67V.67Zm-19.2,66.93q0,18.51-18.6,18.52H291.75V35.86a32,32,0,0,1,.92-7.07q4.05-8.58,14.06-8.59h23.4Z"/><circle class="cls-3" cx="300.2" cy="52.62" r="3.21"/><circle class="cls-3" cx="321.68" cy="52.62" r="3.21"/><circle class="cls-3" cx="310.94" cy="52.62" r="3.21"/></svg>