<?xml version="1.0" encoding="utf-8"?>
<!-- Generator: Adobe Illustrator 24.0.2, SVG Export Plug-In . SVG Version: 6.00 Build 0)  -->
<svg version="1.1" id="Layer_1" xmlns="http://www.w3.org/2000/svg" xmlns:xlink="http://www.w3.org/1999/xlink" x="0px" y="0px"
	 viewBox="0 0 648 648" style="enable-background:new 0 0 648 648;" xml:space="preserve">
<style type="text/css">
	.st0{fill:none;}
	.st1{fill:#0F008A;}
	.st2{fill:#FFFF00;}
</style>
<title>Artboard 6</title>
<rect x="143.9" y="143.9" class="st0" width="360.3" height="360.3"/>
<g>
	<path class="st1" d="M180.2,305.1c2.2,0.1,4.4,1,6,2.5c2.4-1.7,6.5-2.5,12.4-2.5h0.2c9.9,0,16.6,3.5,20,10.6c1.3,2.9,2,6.1,2,9.3
		v38.8l-0.4,0.4h-2.5c-4.3,0-7.1-2.2-8.4-6.7v-30c0-5.2-1.4-8.4-4.2-9.7c-1.6-0.9-4.2-1.3-7.9-1.3c-6.6,0-9.8,3.4-9.8,10.2v37.1
		l-0.4,0.4h-2.7c-4.3,0-7-2.1-8.2-6.4l-0.2-1.8v-50.1C176.2,305.5,177.5,305.2,180.2,305.1z"/>
	<path class="st1" d="M230.9,305.3h3.4c3.4,0,5.8,1.9,7.2,5.7c0.2,0.8,0.4,1.6,0.3,2.4v30.1c0,6.4,3.2,9.6,9.7,9.5h0.2
		c7.8,0,11.7-2.8,11.7-8.5v-38.9l0.4-0.4h3c4.5,0,7.1,2.6,7.7,7.9v50.6l-0.3,0.4h-2c-2.6,0.2-5.2-0.9-7-2.9
		c-2.9,1.9-6.8,2.9-11.7,2.9h-1.1c-10.8,0-17.6-4.2-20.6-12.7c-0.8-2.5-1.3-5.1-1.3-7.7v-38L230.9,305.3z"/>
	<path class="st1" d="M303,305.3l3.4,0.2h3.3c4.6,0,8.9,1.9,12.9,5.5c3.9-3.8,9.2-5.9,14.6-5.7c7.4,0,12.3,1,14.7,3.1
		c6,4.1,8.9,10,8.9,17.5v37.9l-0.3,0.4H359c-4.5,0-7.3-1.7-8.6-5c-0.5-1.3-0.8-2.7-0.8-4.1v-27.2c0-5.1-1.4-8.5-4.1-10.2
		c-1.8-0.7-3.8-1.1-5.7-1.2c-5.2,0-8.6,1-10,2.9c-1.2,2.1-1.9,4.5-1.8,7v37.5l-0.3,0.4h-2.2c-4.6,0-7.5-2.3-8.6-6.8l-0.2-2.5v-29.4
		c0-4.2-1.7-7-5.2-8.4l-4.1-0.7c-5.9,0-9.4,1.1-10.3,3.2c-1.3,1.3-2,4.3-2,9.1v35l-0.4,0.4h-1.4c-4.3,0-7.2-1.7-8.6-5
		c-0.4-1.2-0.7-2.5-0.7-3.8v-49.5l0.4-0.3h3.2c2.3,0,4.4,0.9,6.1,2.5C296.6,306.3,299.7,305.4,303,305.3z"/>
	<path class="st1" d="M445.2,305.3H467l0.4,0.4v58.1l-0.4,0.4h-2.3c-2.6,0.1-5.1-0.9-6.8-2.9c-2.9,1.9-6.7,2.9-11.6,2.9H424
		l-0.4-0.4v-38.6c0-10.3,5.1-16.7,15.2-19.3C440.9,305.4,443.1,305.2,445.2,305.3z M434.9,325.3V353h11c6.9,0,10.4-3.4,10.4-10.4
		v-26.1h-13.1c-3.4-0.2-6.5,1.7-7.9,4.8C435.1,322.6,434.9,324,434.9,325.3L434.9,325.3z"/>
	<path class="st2" d="M413.7,275.8h-21.8c-2.2,0-4.3,0.1-6.4,0.5c-10.1,2.6-15.2,9.1-15.2,19.3v38.6l0.4,0.4h22.3
		c4.9,0,8.8-1,11.6-2.9c1.7,1.9,4.2,3,6.8,2.9h2.3l0.4-0.4v-58.1L413.7,275.8z M403,313.2c0,6.9-3.5,10.4-10.4,10.4h-11.1v-27.7
		c0-1.3,0.2-2.7,0.5-4c1.5-3.2,4.1-4.8,7.9-4.8H403V313.2z"/>
</g>
<circle class="st2" cx="386.2" cy="305.2" r="1.8"/>
<circle class="st2" cx="398.2" cy="305.2" r="1.8"/>
<circle class="st2" cx="392.2" cy="305.2" r="1.8"/>
</svg>
