<?xml version="1.0" encoding="utf-8"?>
<!-- Generator: Adobe Illustrator 23.0.1, SVG Export Plug-In . SVG Version: 6.00 Build 0)  -->
<svg version="1.1" id="Layer_1" xmlns="http://www.w3.org/2000/svg" xmlns:xlink="http://www.w3.org/1999/xlink" x="0px" y="0px"
	 viewBox="0 0 70 64.1" style="enable-background:new 0 0 70 64.1;" xml:space="preserve">
<style type="text/css">
	.st0{fill:none;stroke:#0046C2;stroke-width:2;stroke-miterlimit:10;}
	.st1{fill:#1149E3;}
	.st2{fill:none;stroke:#FFFFFF;stroke-linecap:round;stroke-linejoin:round;stroke-miterlimit:10;}
	.st3{fill:#F2F2F2;stroke:#0046C2;stroke-width:2;stroke-miterlimit:10;}
	.st4{fill:#0046C2;}
	.st5{fill:none;stroke:#0046C2;stroke-width:2;stroke-linecap:round;stroke-linejoin:round;stroke-miterlimit:10;}
	.st6{fill:#1149E4;}
	.st7{fill:#1149E3;stroke:#0046C2;stroke-miterlimit:10;}
	.st8{fill:none;stroke:#0046C2;stroke-width:1.5944;stroke-miterlimit:10;}
	.st9{fill:#FFFFFF;}
</style>
<path class="st0" d="M59,24.5C59,37.5,48.5,48,35.5,48S12,37.5,12,24.5S22.5,1,35.5,1"/>
<path class="st0" d="M12.1,41.6c-1-12.9,8.6-24.3,21.6-25.3c12.9-1,24.3,8.6,25.3,21.6s-8.6,24.3-21.6,25.3"/>
<circle class="st3" cx="35.5" cy="32.1" r="7.5"/>
<g>
	<g>
		<circle class="st4" cx="35.5" cy="21.2" r="1"/>
		<circle class="st4" cx="35.5" cy="43.2" r="1"/>
	</g>
	<g>
		<circle class="st4" cx="39.2" cy="21.8" r="1"/>
		<circle class="st4" cx="31.9" cy="42.5" r="1"/>
	</g>
	<g>
		<circle class="st4" cx="43" cy="24.1" r="1"/>
		<circle class="st4" cx="28.1" cy="40.2" r="1"/>
	</g>
	<g>
		<circle class="st4" cx="45.7" cy="28" r="1"/>
		<circle class="st4" cx="25.4" cy="36.4" r="1"/>
	</g>
	<g>
		<circle class="st4" cx="46.5" cy="32.1" r="1"/>
		<circle class="st4" cx="24.5" cy="32.2" r="1"/>
	</g>
	<g>
		<circle class="st4" cx="45.7" cy="36.4" r="1"/>
		<circle class="st4" cx="25.4" cy="28" r="1"/>
	</g>
	<g>
		<circle class="st4" cx="43.8" cy="39.5" r="1"/>
		<circle class="st4" cx="27.3" cy="24.9" r="1"/>
	</g>
	<g>
		<circle class="st4" cx="40.6" cy="42" r="1"/>
		<circle class="st4" cx="30.5" cy="22.4" r="1"/>
	</g>
</g>
<g>
	<polyline class="st5" points="1,32.2 8,32.2 6,30.2 	"/>
	<line class="st5" x1="8" y1="32.2" x2="6" y2="34.2"/>
</g>
<g>
	<polyline class="st5" points="69,32.2 62,32.2 64,30.2 	"/>
	<line class="st5" x1="62" y1="32.2" x2="64" y2="34.2"/>
</g>
</svg>
