<?xml version="1.0" encoding="utf-8"?>
<!-- Generator: Adobe Illustrator 23.0.1, SVG Export Plug-In . SVG Version: 6.00 Build 0)  -->
<svg version="1.1" id="Layer_1" xmlns="http://www.w3.org/2000/svg" xmlns:xlink="http://www.w3.org/1999/xlink" x="0px" y="0px"
	 viewBox="0 0 66.7 66.7" style="enable-background:new 0 0 66.7 66.7;" xml:space="preserve">
<style type="text/css">
	.st0{fill:none;stroke:#0046C2;stroke-width:2;stroke-miterlimit:10;}
	.st1{fill:#1149E3;}
	.st2{fill:none;stroke:#FFFFFF;stroke-linecap:round;stroke-linejoin:round;stroke-miterlimit:10;}
	.st3{fill:#F2F2F2;stroke:#0046C2;stroke-width:2;stroke-miterlimit:10;}
	.st4{fill:#0046C2;}
	.st5{fill:none;stroke:#0046C2;stroke-width:2;stroke-linecap:round;stroke-linejoin:round;stroke-miterlimit:10;}
	.st6{fill:#1149E4;}
	.st7{fill:#1149E3;stroke:#0046C2;stroke-miterlimit:10;}
	.st8{fill:none;stroke:#0046C2;stroke-width:1.5944;stroke-miterlimit:10;}
	.st9{fill:#FFFFFF;}
</style>
<circle class="st7" cx="33.5" cy="33.5" r="12.4"/>
<path class="st8" d="M10.5,10.1c5.9-5.8,13.9-9.3,22.8-9.3c18,0,32.6,14.6,32.6,32.6S51.3,65.9,33.4,65.9c-18,0-32.6-14.6-32.6-32.6
	"/>
<path class="st8" d="M13.4,12.8c5.2-5,12.2-8.1,20-8.1C49.2,4.7,62,17.5,62,33.4S49.2,62,33.4,62c-6.6,0-12.7-2.2-17.5-6"/>
<path class="st8" d="M16.3,15.5c4.4-4.2,10.5-6.9,17.1-6.9c13.6,0,24.7,11.1,24.7,24.7S47,58.1,33.4,58.1"/>
<path class="st8" d="M22.3,16.2c3.3-2.2,7.3-3.4,11.5-3.4c11.7,0,21.1,9.5,21.1,21.1c0,5-1.7,9.5-4.6,13.1"/>
<circle class="st8" cx="33.4" cy="33.4" r="16.3"/>
<g>
	<g>
		<rect x="29.7" y="28.3" class="st9" width="2.2" height="2.2"/>
		<rect x="34.8" y="28.3" class="st9" width="2.2" height="2.2"/>
	</g>
	<g>
		<rect x="29.7" y="36.2" class="st9" width="2.2" height="2.2"/>
		<rect x="34.8" y="36.2" class="st9" width="2.2" height="2.2"/>
	</g>
	<g>
		<rect x="32.2" y="32.2" class="st9" width="2.2" height="2.2"/>
		<rect x="27.2" y="32.2" class="st9" width="2.2" height="2.2"/>
		<rect x="37.3" y="32.2" class="st9" width="2.2" height="2.2"/>
	</g>
</g>
<rect x="7.9" y="32.2" class="st4" width="2.2" height="2.2"/>
<rect x="3.6" y="32.2" class="st4" width="2.2" height="2.2"/>
<rect x="12.2" y="32.4" class="st4" width="2.2" height="2.2"/>
</svg>
