<?xml version="1.0" encoding="utf-8"?>
<!-- Generator: Adobe Illustrator 23.0.1, SVG Export Plug-In . SVG Version: 6.00 Build 0)  -->
<svg version="1.1" id="Layer_1" xmlns="http://www.w3.org/2000/svg" xmlns:xlink="http://www.w3.org/1999/xlink" x="0px" y="0px"
	 viewBox="0 0 57 58.2" style="enable-background:new 0 0 57 58.2;" xml:space="preserve">
<style type="text/css">
	.st0{fill:none;stroke:#0046C2;stroke-width:2;stroke-miterlimit:10;}
	.st1{fill:#1149E3;}
	.st2{fill:none;stroke:#FFFFFF;stroke-linecap:round;stroke-linejoin:round;stroke-miterlimit:10;}
	.st3{fill:#F2F2F2;stroke:#0046C2;stroke-width:2;stroke-miterlimit:10;}
	.st4{fill:#0046C2;}
	.st5{fill:none;stroke:#0046C2;stroke-width:2;stroke-linecap:round;stroke-linejoin:round;stroke-miterlimit:10;}
	.st6{fill:#1149E4;}
	.st7{fill:#1149E3;stroke:#0046C2;stroke-miterlimit:10;}
	.st8{fill:none;stroke:#0046C2;stroke-width:1.5944;stroke-miterlimit:10;}
	.st9{fill:#FFFFFF;}
</style>
<g>
	<rect class="st1" width="57" height="58.2"/>
	<line class="st2" x1="19" y1="24.9" x2="24.9" y2="24.9"/>
	<line class="st2" x1="5.3" y1="29.1" x2="10.1" y2="29.1"/>
	<line class="st2" x1="6.5" y1="18.4" x2="11.3" y2="23.2"/>
	<line class="st2" x1="4.2" y1="11.3" x2="8.3" y2="7.1"/>
	<line class="st2" x1="17.2" y1="5.3" x2="19.6" y2="5.3"/>
	<line class="st2" x1="13.7" y1="16" x2="11.3" y2="11.3"/>
	<line class="st2" x1="18.4" y1="14.8" x2="22" y2="10.1"/>
	<line class="st2" x1="24.3" y1="13.7" x2="29.1" y2="13.7"/>
	<line class="st2" x1="19.6" y1="19.6" x2="22" y2="17.2"/>
	<line class="st2" x1="26.7" y1="18.4" x2="29.1" y2="20.8"/>
	<line class="st2" x1="32.7" y1="24.3" x2="38.6" y2="19.6"/>
	<line class="st2" x1="33.8" y1="14.8" x2="38.6" y2="10.1"/>
	<line class="st2" x1="30.3" y1="6.5" x2="32.7" y2="10.1"/>
	<line class="st2" x1="44.5" y1="8.9" x2="48.1" y2="6.5"/>
	<line class="st2" x1="48.7" y1="11.9" x2="52.2" y2="17.8"/>
	<line class="st2" x1="45.1" y1="22.6" x2="48.7" y2="21.4"/>
	<line class="st2" x1="40.4" y1="15.4" x2="42.8" y2="19"/>
	<line class="st2" x1="36.8" y1="35.6" x2="42.8" y2="35.6"/>
	<line class="st2" x1="33.2" y1="33.2" x2="35.6" y2="28.5"/>
	<line class="st2" x1="38" y1="24.9" x2="41.6" y2="28.5"/>
	<line class="st2" x1="49.9" y1="28.5" x2="52.2" y2="32.1"/>
	<line class="st2" x1="22.6" y1="30.9" x2="26.1" y2="34.4"/>
	<line class="st2" x1="10.7" y1="35.6" x2="16.6" y2="30.9"/>
	<line class="st2" x1="5.9" y1="40.4" x2="11.9" y2="41.6"/>
	<line class="st2" x1="8.3" y1="48.7" x2="11.9" y2="53.4"/>
	<line class="st2" x1="13.1" y1="47.5" x2="20.2" y2="43.9"/>
	<line class="st2" x1="17.8" y1="49.9" x2="23.8" y2="52.2"/>
	<line class="st2" x1="28.5" y1="45.1" x2="33.2" y2="52.2"/>
	<line class="st2" x1="36.8" y1="52.2" x2="40.4" y2="47.5"/>
	<line class="st2" x1="45.1" y1="51.1" x2="51.1" y2="51.1"/>
	<line class="st2" x1="25.5" y1="42.2" x2="29.1" y2="39.8"/>
	<line class="st2" x1="33.2" y1="42.8" x2="36.8" y2="42.8"/>
	<line class="st2" x1="40.4" y1="40.4" x2="43.9" y2="43.9"/>
	<line class="st2" x1="51.1" y1="41.6" x2="49.9" y2="47.5"/>
	<line class="st2" x1="47.5" y1="34.4" x2="47.5" y2="39.2"/>
</g>
</svg>
